<svg width="768" height="306" viewBox="0 0 768 306" fill="none" xmlns="http://www.w3.org/2000/svg">
<path d="M21.5 176.75V112.35H57.7C63.2333 112.35 67.8 113.417 71.4 115.55C75 117.617 77.6667 120.483 79.4 124.15C81.2 127.75 82.1 131.85 82.1 136.45C82.1 140.783 80.9667 144.583 78.7 147.85C76.5 151.117 73.8333 153.817 70.7 155.95C71.4333 156.417 72 156.95 72.4 157.55C72.8 158.083 73.1333 158.65 73.4 159.25L81 176.75H55.8L49.5 162.45C49.1667 161.65 48.8 161.117 48.4 160.85C48 160.517 47.4333 160.35 46.7 160.35H45.7V176.75H21.5ZM45.7 141.45H51.6C55.5333 141.45 57.5 139.783 57.5 136.45C57.5 134.583 57.0333 133.25 56.1 132.45C55.2333 131.65 53.8667 131.25 52 131.25H45.7V141.45ZM116.66 177.75C109.393 177.75 103.193 176.683 98.0602 174.55C92.9268 172.35 88.9935 168.817 86.2602 163.95C83.5268 159.083 82.1602 152.617 82.1602 144.55C82.1602 136.417 83.5268 129.95 86.2602 125.15C88.9935 120.283 92.9268 116.783 98.0602 114.65C103.193 112.45 109.393 111.35 116.66 111.35C123.927 111.35 130.127 112.45 135.26 114.65C140.393 116.783 144.327 120.283 147.06 125.15C149.793 129.95 151.16 136.417 151.16 144.55C151.16 152.617 149.793 159.083 147.06 163.95C144.327 168.817 140.393 172.35 135.26 174.55C130.127 176.683 123.927 177.75 116.66 177.75ZM116.66 157.25C120.193 157.25 122.693 156.317 124.16 154.45C125.693 152.517 126.46 149.217 126.46 144.55C126.46 139.883 125.693 136.617 124.16 134.75C122.693 132.817 120.193 131.85 116.66 131.85C113.127 131.85 110.593 132.817 109.06 134.75C107.593 136.617 106.86 139.883 106.86 144.55C106.86 149.217 107.593 152.517 109.06 154.45C110.593 156.317 113.127 157.25 116.66 157.25ZM187.133 177.75C179.866 177.75 173.666 176.683 168.533 174.55C163.399 172.35 159.466 168.817 156.733 163.95C153.999 159.083 152.633 152.617 152.633 144.55C152.633 136.417 153.999 129.95 156.733 125.15C159.466 120.283 163.399 116.783 168.533 114.65C173.666 112.45 179.866 111.35 187.133 111.35C194.399 111.35 200.599 112.45 205.733 114.65C210.866 116.783 214.799 120.283 217.533 125.15C220.266 129.95 221.633 136.417 221.633 144.55C221.633 152.617 220.266 159.083 217.533 163.95C214.799 168.817 210.866 172.35 205.733 174.55C200.599 176.683 194.399 177.75 187.133 177.75ZM187.133 157.25C190.666 157.25 193.166 156.317 194.633 154.45C196.166 152.517 196.933 149.217 196.933 144.55C196.933 139.883 196.166 136.617 194.633 134.75C193.166 132.817 190.666 131.85 187.133 131.85C183.599 131.85 181.066 132.817 179.533 134.75C178.066 136.617 177.333 139.883 177.333 144.55C177.333 149.217 178.066 152.517 179.533 154.45C181.066 156.317 183.599 157.25 187.133 157.25ZM225.105 176.75V112.35H276.605V129.75H249.305V135.55H272.805V153.55H249.305V176.75H225.105ZM278.586 176.75V112.35H302.786V176.75H278.586ZM308.238 176.75V112.35H328.538L346.538 137.55V112.35H370.738V176.75H350.338L332.438 151.55V176.75H308.238ZM411.77 177.75C399.636 177.75 390.336 174.95 383.87 169.35C377.47 163.75 374.27 155.483 374.27 144.55C374.27 133.617 377.636 125.35 384.37 119.75C391.103 114.15 400.803 111.35 413.47 111.35C417.603 111.35 421.303 111.583 424.57 112.05C427.903 112.45 431.103 113.183 434.17 114.25V134.85C431.103 133.65 427.97 132.85 424.77 132.45C421.636 131.983 418.403 131.75 415.07 131.75C410.403 131.75 406.536 132.683 403.47 134.55C400.47 136.35 398.97 139.683 398.97 144.55C398.97 149.417 400.036 152.783 402.17 154.65C404.37 156.45 407.503 157.35 411.57 157.35C413.703 157.35 415.703 157.117 417.57 156.65V152.75H406.87V138.15H437.57V171.45C434.836 173.117 431.336 174.583 427.07 175.85C422.803 177.117 417.703 177.75 411.77 177.75ZM71.9 260.15L66.2 254.35C63.9333 255.817 61.1 256.917 57.7 257.65C54.3 258.383 50.8 258.75 47.2 258.75C41.5333 258.75 36.6333 257.983 32.5 256.45C28.3667 254.85 25.1667 252.617 22.9 249.75C20.6333 246.883 19.5 243.517 19.5 239.65C19.5 235.383 20.5 231.75 22.5 228.75C24.5 225.75 27.4 223.217 31.2 221.15C29.5333 219.483 28.2667 217.783 27.4 216.05C26.6 214.25 26.2 212.117 26.2 209.65C26.2 204.317 28.2 200.117 32.2 197.05C36.2 193.917 41.5 192.35 48.1 192.35C52.5667 192.35 56.4667 193.05 59.8 194.45C63.1333 195.85 65.7333 197.85 67.6 200.45C69.5333 202.983 70.5 206.05 70.5 209.65C70.5 212.65 69.9333 215.25 68.8 217.45C67.7333 219.65 66.0333 221.75 63.7 223.75L69.9 230.15C70.1667 229.817 70.3333 229.417 70.4 228.95C70.5333 228.417 70.6 227.883 70.6 227.35V225.95H88.2V228.25C88.2 230.917 87.7333 233.617 86.8 236.35C85.8667 239.017 84.6667 241.217 83.2 242.95L86.7 246.65L71.9 260.15ZM48.3 214.85C49.3 214.25 50.0667 213.65 50.6 213.05C51.1333 212.383 51.4 211.617 51.4 210.75C51.4 209.883 51.1333 209.183 50.6 208.65C50.0667 208.117 49.3333 207.85 48.4 207.85C47.3333 207.85 46.5333 208.15 46 208.75C45.5333 209.283 45.3 209.95 45.3 210.75C45.3 211.617 45.5667 212.383 46.1 213.05C46.6333 213.65 47.3667 214.25 48.3 214.85ZM47.2 242.55C48.9333 242.55 50.4 242.217 51.6 241.55L45.7 235.55C43.7 236.083 42.7 237.25 42.7 239.05C42.7 240.117 43.0667 240.983 43.8 241.65C44.6 242.25 45.7333 242.55 47.2 242.55ZM121.434 258.75C118.568 258.75 115.801 258.583 113.134 258.25C110.468 257.917 107.834 257.317 105.234 256.45V236.35C106.901 237.017 108.701 237.517 110.634 237.85C112.568 238.117 114.501 238.25 116.434 238.25C119.434 238.25 121.568 237.65 122.834 236.45C124.101 235.25 124.734 233.183 124.734 230.25V193.35H148.934V236.15C148.934 243.683 146.568 249.35 141.834 253.15C137.101 256.883 130.301 258.75 121.434 258.75ZM186.414 258.75C179.147 258.75 172.947 257.683 167.814 255.55C162.681 253.35 158.747 249.817 156.014 244.95C153.281 240.083 151.914 233.617 151.914 225.55C151.914 217.417 153.281 210.95 156.014 206.15C158.747 201.283 162.681 197.783 167.814 195.65C172.947 193.45 179.147 192.35 186.414 192.35C193.681 192.35 199.881 193.45 205.014 195.65C210.147 197.783 214.081 201.283 216.814 206.15C219.547 210.95 220.914 217.417 220.914 225.55C220.914 233.617 219.547 240.083 216.814 244.95C214.081 249.817 210.147 253.35 205.014 255.55C199.881 257.683 193.681 258.75 186.414 258.75ZM186.414 238.25C189.947 238.25 192.447 237.317 193.914 235.45C195.447 233.517 196.214 230.217 196.214 225.55C196.214 220.883 195.447 217.617 193.914 215.75C192.447 213.817 189.947 212.85 186.414 212.85C182.881 212.85 180.347 213.817 178.814 215.75C177.347 217.617 176.614 220.883 176.614 225.55C176.614 230.217 177.347 233.517 178.814 235.45C180.347 237.317 182.881 238.25 186.414 238.25ZM224.387 257.75V193.35H248.587V257.75H224.387ZM254.039 257.75V193.35H274.339L292.339 218.55V193.35H316.539V257.75H296.139L278.239 232.55V257.75H254.039ZM322.07 257.75V193.35H373.57V210.75H346.27V216.55H369.77V234.55H346.27V240.35H373.57V257.75H322.07ZM376.039 257.75V193.35H412.239C417.772 193.35 422.339 194.417 425.939 196.55C429.539 198.617 432.206 201.483 433.939 205.15C435.739 208.75 436.639 212.85 436.639 217.45C436.639 221.783 435.506 225.583 433.239 228.85C431.039 232.117 428.372 234.817 425.239 236.95C425.972 237.417 426.539 237.95 426.939 238.55C427.339 239.083 427.672 239.65 427.939 240.25L435.539 257.75H410.339L404.039 243.45C403.706 242.65 403.339 242.117 402.939 241.85C402.539 241.517 401.972 241.35 401.239 241.35H400.239V257.75H376.039ZM400.239 222.45H406.139C410.072 222.45 412.039 220.783 412.039 217.45C412.039 215.583 411.572 214.25 410.639 213.45C409.772 212.65 408.406 212.25 406.539 212.25H400.239V222.45ZM454.421 257.75V234.35L431.121 193.35H456.321L466.521 213.85L476.721 193.35H501.921L478.621 234.35V257.75H454.421Z" fill="white"/>
<path d="M20.8 303.75V277.99H23.76L38.44 298.71V277.99H41.72V303.75H38.72L24.08 283.07V303.75H20.8ZM89.2034 304.15C85.1768 304.15 82.1901 303.097 80.2434 300.99C78.2968 298.857 77.3234 295.483 77.3234 290.87C77.3234 286.257 78.2968 282.897 80.2434 280.79C82.1901 278.657 85.1768 277.59 89.2034 277.59C93.2568 277.59 96.2434 278.657 98.1634 280.79C100.11 282.897 101.083 286.257 101.083 290.87C101.083 295.483 100.11 298.857 98.1634 300.99C96.2434 303.097 93.2568 304.15 89.2034 304.15ZM89.2034 301.35C91.1501 301.35 92.7501 301.017 94.0034 300.35C95.2834 299.683 96.2301 298.59 96.8434 297.07C97.4834 295.523 97.8034 293.457 97.8034 290.87C97.8034 288.283 97.4834 286.23 96.8434 284.71C96.2301 283.163 95.2834 282.057 94.0034 281.39C92.7501 280.723 91.1501 280.39 89.2034 280.39C87.2568 280.39 85.6434 280.723 84.3634 281.39C83.1101 282.057 82.1634 283.163 81.5234 284.71C80.9101 286.23 80.6034 288.283 80.6034 290.87C80.6034 293.457 80.9101 295.523 81.5234 297.07C82.1634 298.59 83.1101 299.683 84.3634 300.35C85.6434 301.017 87.2568 301.35 89.2034 301.35ZM136.697 303.75V277.99H148.017C150.79 277.99 152.804 278.71 154.057 280.15C155.337 281.59 155.977 283.537 155.977 285.99C155.977 287.883 155.51 289.457 154.577 290.71C153.67 291.963 152.31 292.803 150.497 293.23C151.03 293.55 151.43 293.923 151.697 294.35C151.99 294.75 152.284 295.297 152.577 295.99L155.937 303.75H152.577L149.297 296.27C148.95 295.47 148.524 294.897 148.017 294.55C147.537 294.203 146.67 294.03 145.417 294.03H139.977V303.75H136.697ZM139.977 291.47H147.097C148.83 291.47 150.19 291.043 151.177 290.19C152.19 289.31 152.697 287.91 152.697 285.99C152.697 282.39 150.977 280.59 147.537 280.59H139.977V291.47ZM198.519 303.75V280.59H189.959V277.99H210.359V280.59H201.799V303.75H198.519ZM245.172 303.75V277.99H248.452V289.59H262.052V277.99H265.332V303.75H262.052V292.15H248.452V303.75H245.172ZM306.914 303.75L300.914 277.99H304.154L308.994 299.19L314.554 280.83V277.99H317.234L323.234 299.19L328.154 277.99H331.354L325.394 303.75H321.914L316.314 284.15L310.434 303.75H306.914ZM366.967 303.75V277.99H384.367V280.59H370.247V289.59H382.927V292.15H370.247V301.19H384.367V303.75H366.967ZM426.304 304.15C423.104 304.15 420.517 303.75 418.544 302.95V300.03C419.664 300.457 420.85 300.79 422.104 301.03C423.384 301.243 424.69 301.35 426.024 301.35C428.317 301.35 430.037 301.043 431.184 300.43C432.33 299.79 432.904 298.657 432.904 297.03C432.904 296.017 432.664 295.217 432.184 294.63C431.73 294.017 430.97 293.51 429.904 293.11C428.837 292.683 427.41 292.257 425.624 291.83C422.797 291.137 420.81 290.243 419.664 289.15C418.517 288.03 417.944 286.537 417.944 284.67C417.944 282.483 418.73 280.763 420.304 279.51C421.877 278.23 424.277 277.59 427.504 277.59C428.997 277.59 430.384 277.697 431.664 277.91C432.944 278.123 433.93 278.35 434.624 278.59V281.47C433.664 281.123 432.624 280.857 431.504 280.67C430.384 280.483 429.224 280.39 428.024 280.39C425.837 280.39 424.157 280.71 422.984 281.35C421.81 281.99 421.224 283.097 421.224 284.67C421.224 285.55 421.424 286.27 421.824 286.83C422.25 287.363 422.957 287.83 423.944 288.23C424.93 288.603 426.304 289.003 428.064 289.43C430.17 289.937 431.81 290.55 432.984 291.27C434.157 291.963 434.984 292.79 435.464 293.75C435.944 294.71 436.184 295.803 436.184 297.03C436.184 299.297 435.357 301.057 433.704 302.31C432.05 303.537 429.584 304.15 426.304 304.15ZM477.129 303.75V280.59H468.569V277.99H488.969V280.59H480.409V303.75H477.129Z" fill="white"/>
<path d="M734 291.75H650H566V123.75H734V291.75Z" stroke="white" stroke-width="24"/>
<path d="M384.001 0L768 70.0276L767.999 80H0L0.00132105 70.0276L384.001 0Z" fill="white"/>
<line x1="574" y1="207.25" x2="726" y2="207.25" stroke="white" stroke-width="22"/>
<line x1="651.75" y1="132" x2="651.75" y2="284" stroke="white" stroke-width="22"/>
</svg>
